<?xml version="1.0" encoding="UTF-8"?>
<level>
  <owner>wolskp</owner>
  <repo>same-note</repo>
  <version>v1.0.5</version>
  <readme>
    <ru>48621af3cd04fefef5755006ec1fee34ec15c0cc7a428b231d3bf6eb59bdeeb9</ru>
    <en>8053a4ca87e58ade61fcafe798973b02a60fc5d4e7ba3993eee99f941d57c48e</en>
  </readme>
  <license>b1b99f5538d1fd3702219bff50c665196dfa42f6ee755c37fe41a6178d6bc6e5</license>
  <exercise number="1">
    <scale>major</scale>
    <bpm>120</bpm>
    <lowestNote>1</lowestNote>
    <tonalities>9</tonalities>
    <notes>
      <note number="1" values="1" ticks="0" durationTicks="185" ppq="192" velocity="0.219"/>
      <note number="2" values="1" ticks="195" durationTicks="189" ppq="192" velocity="0.224"/>
      <note number="3" values="1" ticks="385" durationTicks="191" ppq="192" velocity="0.224"/>
      <note number="4" values="1" ticks="576" durationTicks="191" ppq="192" velocity="0.224"/>
      <note number="5" values="1" ticks="768" durationTicks="191" ppq="192" velocity="0.224"/>
      <note number="6" values="1" ticks="960" durationTicks="191" ppq="192" velocity="0.224"/>
      <note number="7" values="1" ticks="1152" durationTicks="191" ppq="192" velocity="0.224"/>
      <note number="8" values="1" ticks="1344" durationTicks="191" ppq="192" velocity="0.224"/>
      <note number="9" values="1" ticks="1536" durationTicks="191" ppq="192" velocity="0.224"/>
      <note number="10" values="1" ticks="1728" durationTicks="191" ppq="192" velocity="0.224"/>
      <note number="11" values="1" ticks="1920" durationTicks="191" ppq="192" velocity="0.224"/>
      <note number="12" values="1" ticks="2112" durationTicks="191" ppq="192" velocity="0.224"/>
      <note number="13" values="1" ticks="2304" durationTicks="191" ppq="192" velocity="0.224"/>
      <note number="14" values="1" ticks="2496" durationTicks="191" ppq="192" velocity="0.224"/>
      <note number="15" values="1" ticks="2688" durationTicks="191" ppq="192" velocity="0.224"/>
      <note number="16" values="1" ticks="2880" durationTicks="191" ppq="192" velocity="0.224"/>
      <note number="17" values="1" ticks="3072" durationTicks="191" ppq="192" velocity="0.224"/>
      <note number="18" values="1" ticks="3264" durationTicks="191" ppq="192" velocity="0.224"/>
      <note number="19" values="1" ticks="3456" durationTicks="191" ppq="192" velocity="0.224"/>
      <note number="20" values="1" ticks="3648" durationTicks="191" ppq="192" velocity="0.224"/>
    </notes>
  </exercise>
  <exercise number="2">
    <scale>major</scale>
    <bpm>120</bpm>
    <lowestNote>1</lowestNote>
    <tonalities>9</tonalities>
    <notes>
      <note number="1" values="1" ticks="0" durationTicks="185" ppq="192" velocity="0.219"/>
      <note number="2" values="1" ticks="195" durationTicks="189" ppq="192" velocity="0.224"/>
      <note number="3" values="1" ticks="385" durationTicks="191" ppq="192" velocity="0.224"/>
      <note number="4" values="1" ticks="576" durationTicks="191" ppq="192" velocity="0.224"/>
      <note number="5" values="1" ticks="768" durationTicks="191" ppq="192" velocity="0.224"/>
      <note number="6" values="1" ticks="960" durationTicks="191" ppq="192" velocity="0.224"/>
      <note number="7" values="1" ticks="1152" durationTicks="191" ppq="192" velocity="0.224"/>
      <note number="8" values="1" ticks="1344" durationTicks="191" ppq="192" velocity="0.224"/>
      <note number="9" values="1" ticks="1536" durationTicks="191" ppq="192" velocity="0.224"/>
      <note number="10" values="1" ticks="1728" durationTicks="191" ppq="192" velocity="0.224"/>
      <note number="11" values="1" ticks="1920" durationTicks="191" ppq="192" velocity="0.224"/>
      <note number="12" values="1" ticks="2112" durationTicks="191" ppq="192" velocity="0.224"/>
      <note number="13" values="1" ticks="2304" durationTicks="191" ppq="192" velocity="0.224"/>
      <note number="14" values="1" ticks="2496" durationTicks="191" ppq="192" velocity="0.224"/>
      <note number="15" values="1" ticks="2688" durationTicks="191" ppq="192" velocity="0.224"/>
      <note number="16" values="1" ticks="2880" durationTicks="191" ppq="192" velocity="0.224"/>
      <note number="17" values="1" ticks="3072" durationTicks="191" ppq="192" velocity="0.224"/>
      <note number="18" values="1" ticks="3264" durationTicks="191" ppq="192" velocity="0.224"/>
      <note number="19" values="1" ticks="3456" durationTicks="191" ppq="192" velocity="0.224"/>
      <note number="20" values="1" ticks="3648" durationTicks="191" ppq="192" velocity="0.224"/>
    </notes>
  </exercise>
  <next number="1" owner="wolskp" repo="tonic-harmonic"/>
</level>
